<?xml version="1.0" encoding="utf-8"?>
<!-- Generator: Adobe Illustrator 16.0.0, SVG Export Plug-In . SVG Version: 6.00 Build 0)  -->
<!DOCTYPE svg PUBLIC "-//W3C//DTD SVG 1.1//EN" "http://www.w3.org/Graphics/SVG/1.1/DTD/svg11.dtd">
<svg version="1.1" id="Layer_1" xmlns="http://www.w3.org/2000/svg" xmlns:xlink="http://www.w3.org/1999/xlink" x="0px" y="0px"
	 width="8.585px" height="120.448px" viewBox="0 0 8.585 120.448" enable-background="new 0 0 8.585 120.448" xml:space="preserve">
<g>
	<line fill="none" stroke="#989898" stroke-width="0.229" stroke-miterlimit="10" x1="4.368" y1="0" x2="4.228" y2="120.448"/>
	<polygon fill-rule="evenodd" clip-rule="evenodd" fill="#C47A48" points="4.596,17.322 7.09,17.322 7.033,112.604 5.928,113.577 
		4.481,113.577 	"/>
	<polygon fill-rule="evenodd" clip-rule="evenodd" fill="#FCD79C" points="5.956,19.04 5.928,113.577 1.506,113.577 1.563,19.04 	
		"/>
	<path fill-rule="evenodd" clip-rule="evenodd" fill="#F2B16F" d="M1.846,33.326C2.101,36.676,2.47,41.4,2.44,46.439
		c-0.057,6.871-0.453,9.992-0.453,9.992C1.987,56.402,1.846,33.326,1.846,33.326L1.846,33.326z M2.017,99.262
		c0.254-3.12,0.283-29.518,0.141-32.667c0,0-0.057,0.945-0.17,2.491c-0.198,3.034-0.113,3.149,0,7.1c0,0-0.283,10.594-0.283,17.408
		C1.732,96.771,2.017,99.262,2.017,99.262L2.017,99.262z M2.555,70.718c0,12.368,0.935,20.155-0.596,32.495
		c-0.085,0.658-0.028,4.065,0.085,6.843c0.086,2.004-0.085,3.436-0.027,3.521H2.81c-0.142-0.258-0.566-9.276-0.453-10.335
		c0.651-5.24,0.936-13.915,0.936-21.674C3.292,76.845,2.895,79.335,2.555,70.718L2.555,70.718z M5.729,113.577
		c0-12.34-1.673-24.564-0.143-36.933c0.086-0.63,0.058-4.037-0.084-6.814c-0.086-1.947-0.086-5.096,0-7.043
		c0.142-2.777,0.17-6.184,0.113-6.814C4.085,43.604,5.758,31.379,5.758,19.04H4.879c0,12.339-1.446,26.884,0.057,39.252
		c0.17,1.231-0.283,16.577-0.425,17.809c-1.531,12.368,0.34,25.108,0.34,37.477H5.729z M4.142,33.928
		c-0.453,8.131-0.793,22.045-0.793,32.438c0,10.278,0.566,26.97,0.879,29.26C3.802,73.208,3.717,56.46,4.142,33.928L4.142,33.928z
		 M4.255,97.83c0,4.123-0.057,8.218-0.255,12.226c-0.057,1.489,0,2.147-0.085,2.863C4.368,111.745,4.397,105.475,4.255,97.83
		L4.255,97.83z M3.858,37.077c0.028-4.123,0.369-10.536,0.198-14.544c-0.085-1.461-0.028-2.119-0.085-2.835
		C4.425,20.872,4.028,29.461,3.858,37.077L3.858,37.077z M3.519,109.512c-0.143-2.348,0.17-15.432,0.028-18.581
		c0,0-0.312,5.611-0.425,7.157c-0.228,3.063-0.143,11.28-0.057,15.203c0,0,0.51,0.143,0.538-0.114
		C3.688,112.089,3.519,109.512,3.519,109.512L3.519,109.512z M2.866,72.722c0-12.368,0.652-30.978-0.879-43.347
		c-0.085-0.629-0.028-4.037,0.086-6.813c0.113-2.005-0.057-3.436-0.029-3.521h0.822c-0.17,0.257-0.596,9.276-0.482,10.335
		c0.652,5.24,0.936,13.914,0.908,21.674C3.292,55.772,3.575,69.658,2.866,72.722L2.866,72.722z M3.547,23.076
		c-0.142,2.377,0.17,15.461,0.028,18.61c0,0-0.34-5.64-0.426-7.157c-0.227-3.064,0.227-10.136,0.34-14.059
		c0,0,0.143-1.287,0.143-1.059C3.745,20.529,3.547,23.076,3.547,23.076L3.547,23.076z"/>
	<path fill-rule="evenodd" clip-rule="evenodd" fill="#752900" d="M4.312,6.872c6.379,0,4.082,10.564,2.778,12.483
		c0,0-1.049,0.515-1.134,0.515H1.563C1.364,19.87-3.2,6.872,4.312,6.872L4.312,6.872z"/>
	<path fill-rule="evenodd" clip-rule="evenodd" fill="#9C4803" d="M5.928,19.87H1.563c-0.171,0-3.316-8.876-0.171-11.968
		c0.454-0.143,0.965-0.229,1.56-0.229C9.074,7.674,7.231,17.351,5.928,19.87L5.928,19.87z"/>
	<path fill-rule="evenodd" clip-rule="evenodd" fill="#B95300" d="M2.753,19.87h-1.19c-0.142,0-2.75-7.329-0.879-10.966
		c3.515-0.801,4.337,2.119,4.365,5.697C5.049,16.521,3.972,19.698,2.753,19.87L2.753,19.87z"/>
	<path fill-rule="evenodd" clip-rule="evenodd" fill="#F5A478" d="M1.704,17.265c-1.275-2.204-1.785-7.272,0.453-7.644
		C1.278,11.252,1.278,15.347,1.704,17.265L1.704,17.265z"/>
</g>
</svg>
