<svg width="19" height="189" viewBox="0 0 19 189" fill="none" xmlns="http://www.w3.org/2000/svg">
<path fill-rule="evenodd" clip-rule="evenodd" d="M2.2002 186.1V181V14.1C2.2002 13.9 2.4002 13.8 2.5002 13.8H13.4002H16.1002V185.3V186.6L13.0002 188.7H10.3002H5.3002H2.2002V186.1Z" fill="#FCB874"/>
<path d="M2.2001 54.0999C2.9001 55.0999 3.5001 57 4.0001 58.8C4.6001 60.8 5.1001 62.7 5.6001 62.9C5.6001 62.9 5.7001 62.7999 5.8001 62.5999C6.5001 61.3999 7.0001 58.7999 7.3001 55.6999C7.7001 51.2999 7.8001 46 7.6001 42.9C7.4001 38.4 6.8001 35.4999 5.7001 33.0999C4.9001 31.2999 3.7001 29.9 2.1001 28.4V27C4.1001 28.8 5.5001 30.4999 6.6001 32.5999C7.8001 35.0999 8.4001 38.2 8.6001 42.7C8.7001 45.7999 8.7001 51.0999 8.3001 55.5999C8.0001 58.7999 7.5001 61.6 6.7001 62.9C6.2001 63.8 5.6001 63.8999 5.1001 63.5999C4.3001 63.0999 3.7001 61 3.0001 58.9C2.7001 58 2.5001 56.9999 2.2001 56.1999V54.0999ZM2.2001 33.9L2.7001 34.2999C4.3001 35.6999 6.0001 37.2999 6.4001 39.2999C7.0001 43.1999 7.2001 48.9 6.6001 52.2C6.4001 53.2 6.1001 54.0999 5.7001 54.5999C5.2001 55.2999 4.5001 55.4 3.7001 55C3.3001 54.7 2.8001 54.2999 2.2001 53.5V51.7C3.0001 53.1 3.7001 53.8999 4.2001 54.1999C4.5001 54.2999 4.7001 54.2999 4.9001 54.0999C5.2001 53.6999 5.4001 53.1 5.6001 52.2C6.2001 49 5.9001 43.3999 5.3001 39.5999C5.1001 37.9999 3.6001 36.7 2.2001 35.4V33.9ZM2.2001 48.2C2.3001 48.2999 2.4001 48.2999 2.5001 48.2999C2.9001 48.3999 3.2001 48 3.4001 47.4C3.7001 46.6 3.9001 45.4 3.8001 44.2C3.8001 42.2 3.2001 39.9 2.1001 38.5V37.0999C3.9001 38.4999 4.7001 41.5 4.8001 44.2C4.9001 45.6 4.7001 46.8999 4.3001 47.7999C3.9001 48.8999 3.2001 49.5 2.2001 49.2999H2.1001V48.2H2.2001ZM2.2001 148.8V146.1C2.9001 147.8 3.7001 149.7 3.9001 151.8C4.1001 153.1 3.9001 153.9 3.8001 154.6C3.6001 155.3 3.5001 155.9 4.0001 157.2C4.7001 159.1 4.5001 162.4 4.3001 165.5C4.2001 167.1 4.1001 168.6 4.1001 169.8C4.3001 174.7 4.0001 179.6 3.8001 183.9C3.8001 184.9 3.7001 185.9 3.7001 186.7C3.7001 186.9 3.6001 188.7 3.6001 188.9H2.4001C2.4001 188 2.7001 184.8 2.8001 183.9C3.0001 179.6 3.2001 174.7 3.1001 169.9C3.1001 168.7 3.2001 167.1 3.3001 165.5C3.5001 162.5 3.7001 159.3 3.1001 157.6C2.6001 156 2.7001 155.3 2.9001 154.4C3.0001 153.8 3.2001 153.1 3.0001 152C2.8001 150.9 2.5001 149.8 2.2001 148.8ZM2.2001 135.5V128.9C2.5001 129.5 2.7001 130.9 2.9001 132.8C3.2001 135.7 3.6001 139.8 4.8001 143.5C7.4001 151.5 6.9001 156.2 6.3001 161.5C6.0001 163.9 5.8001 166.4 5.8001 169.4C5.8001 172 6.1001 174.1 6.4001 176.3C6.7001 178.5 7.0001 180.6 7.0001 183C7.0001 184.6 6.6001 186.6 6.3001 188.5L6.2001 189H5.3001L5.2001 188.9L5.3001 188.2C5.6001 186.4 6.0001 184.5 6.0001 182.9C6.0001 180.5 5.7001 178.5 5.4001 176.4C5.1001 174.2 4.8001 172 4.8001 169.4C4.8001 166.4 5.1001 163.8 5.3001 161.4C5.9001 156.2 6.4001 151.6 3.8001 143.8C3.0001 141 2.5001 138 2.2001 135.5ZM2.2001 121.2V116.7C3.4001 121.6 4.4001 126.7 5.3001 131.8C6.7001 139.9 7.9001 148 8.7001 155.4C9.2001 160.1 9.4001 166.6 9.3001 173.2C9.2001 178.8 9.0001 184.5 8.7001 189H7.7001C8.0001 184.5 8.3001 178.9 8.4001 173.2C8.5001 166.7 8.3001 160.1 7.8001 155.5C7.0001 148.1 5.8001 140 4.4001 132C3.7001 128.3 3.0001 124.7 2.2001 121.2ZM2.2001 62.4V60.0999C2.5001 60.3999 2.7001 60.8999 3.0001 61.5999C3.9001 64.0999 4.8001 69.0999 4.7001 73C4.6001 80.2999 4.6001 89.4 4.8001 98.3C5.0001 105.6 5.3001 112.8 5.9001 118.7C6.0001 119.4 6.0001 120.2 6.1001 121.1C6.3001 124.3 6.6001 128.5 7.6001 130.7C8.4001 132.5 9.5001 137.2 10.4001 143C11.1001 147.8 11.7001 153.5 12.0001 159.2C12.3001 164.9 12.2001 170.6 12.1001 175.8C12.0001 181 12.0001 185.6 12.2001 188.9H11.2001C10.9001 185.5 11.0001 180.9 11.1001 175.8C11.2001 170.6 11.2001 164.9 11.0001 159.2C10.8001 153.6 10.2001 147.9 9.4001 143.1C8.5001 137.3 7.5001 132.8 6.7001 131.1C5.6001 128.7 5.4001 124.4 5.1001 121.1C5.0001 120.2 5.0001 119.4 4.9001 118.7C4.4001 112.8 4.0001 105.6 3.8001 98.3C3.6001 89.4 3.6001 80.2999 3.7001 73C3.8001 69.4 3.0001 64.9 2.2001 62.4ZM2.2001 24.2V22.5C3.0001 23.6 3.9001 24.6999 4.8001 25.7999C6.8001 28.1999 8.7001 30.5999 9.6001 33.0999C13.3001 43.0999 10.5001 59.1 8.5001 71.4C7.6001 76.4 6.9001 80.7 6.7001 83.8C6.6001 85.1 6.6001 86.4999 6.8001 87.0999C6.8001 87.0999 7.1001 86.7 7.9001 85.3V85.2C9.8001 81.8999 12.8001 76.5 16.6001 74V75.1999C13.3001 77.7999 10.5001 82.7 8.8001 85.7V85.8C7.2001 88.6 6.3001 88.7 5.9001 87.5C5.6001 86.8 5.7001 85.2 5.8001 83.8C6.0001 80.7 6.7001 76.3 7.6001 71.3C9.7001 59.1 12.4001 43.2999 8.8001 33.5C7.9001 31.2 6.1001 28.9 4.2001 26.5C3.4001 25.7 2.8001 25 2.2001 24.2ZM2.5001 13.7H3.5001C3.9001 18.2 6.8001 22.2999 9.4001 26.0999C11.7001 29.3999 13.8001 32.4 14.0001 35.2C14.2001 37.2 14.3001 39.5 14.3001 41.9C14.5001 46.6 14.6001 51.5999 15.7001 55.5999C17.0001 60.5999 14.2001 66.0999 12.0001 70.5C10.5001 73.5 9.3001 75.9 10.0001 76.8L10.2001 76.6999C10.8001 76.1999 11.6001 74.9 12.5001 73.5C13.7001 71.5999 15.0001 69.3999 16.5001 68.1999V69.5999C15.4001 70.7999 14.3001 72.5 13.3001 74.0999C12.4001 75.5999 11.5001 76.9 10.8001 77.5C10.2001 78 9.7001 78.0999 9.2001 77.5999C8.0001 76.1999 9.3001 73.4999 11.0001 70.1999C13.1001 65.9999 15.8001 60.7 14.6001 56C13.5001 51.7999 13.4001 46.7999 13.2001 42.0999C13.1001 39.7999 13.0001 37.6 12.9001 35.5C12.7001 33 10.7001 30.1 8.5001 26.9C5.8001 22.8 2.9001 18.4 2.5001 13.7ZM6.6001 13.7H7.6001C8.0001 16.7 8.5001 19.6999 9.5001 20.7999C9.9001 21.2999 10.4001 21.7 10.9001 22C13.4001 24 16.3001 26.3 16.4001 42.2C16.4001 42.7 16.5001 43.1 16.5001 43.5V47.5C16.0001 46 15.4001 44.2 15.4001 42.2C15.3001 26.7 12.6001 24.6 10.2001 22.7C9.7001 22.3 9.2001 21.9 8.7001 21.2999C7.6001 20.1999 7.1001 16.9 6.6001 13.7ZM10.6001 13.7H11.6001C11.5001 15 11.5001 16.4 11.7001 18C11.7001 18.1 11.9001 18.1 12.2001 18.5C13.2001 19.7 15.2001 22 16.5001 24.4V26.7999C16.4001 26.4 16.2001 26.0999 16.0001 25.7999C14.8001 23.1999 12.5001 20.5 11.4001 19.2C11.0001 18.7 10.7001 18.4 10.7001 18.2C10.5001 16.6 10.5001 15.1 10.6001 13.7ZM13.0001 13.7H14.0001C14.2001 15.5 15.4001 17.5 16.6001 19.1V20.7999C15.0001 18.8999 13.2001 16.2 13.0001 13.7ZM16.6001 77.8999V79C15.7001 79.6 14.8001 80.4999 13.9001 81.5999C13.1001 82.5999 12.3001 83.8999 11.6001 85.0999C10.9001 86.4999 10.3001 87.8 9.9001 88.8C7.3001 96.3 7.4001 100.6 7.6001 106.2C7.7001 108.5 7.7001 111 7.6001 114C7.5001 117.5 8.1001 119.9 8.6001 122.1C8.9001 123.6 9.3001 125 9.5001 126.7C9.8001 129.6 10.6001 132.8 11.4001 136.2C12.2001 139.3 13.0001 142.5 13.4001 145.6C14.4001 153.1 14.3001 161.1 14.2001 169C14.2001 171.2 14.1001 173.4 14.1001 175.9C14.1001 178.3 14.3001 179.3 14.5001 180.4C14.6001 181.1 14.8001 181.7 14.9001 182.8C15.0001 184 15.6001 185.5 16.2001 187L15.4001 187.6C14.7001 186 14.1001 184.3 13.9001 182.9C13.8001 181.9 13.7001 181.2 13.5001 180.5C13.3001 179.4 13.1001 178.3 13.1001 175.9C13.1001 173.8 13.1001 171.4 13.2001 169C13.3001 161.2 13.4001 153.2 12.4001 145.8C12.0001 142.9 11.2001 139.6 10.4001 136.5C9.5001 133.2 8.7001 129.9 8.4001 126.9C8.2001 125.2 7.9001 123.8 7.5001 122.4C6.9001 120.1 6.4001 117.7 6.5001 114C6.6001 111 6.5001 108.5 6.5001 106.3C6.3001 100.6 6.2001 96.1999 8.9001 88.5999C9.3001 87.4999 9.9001 86.1 10.7001 84.7C11.4001 83.5 12.2001 82.1999 13.1001 81.0999C14.1001 79.7999 15.2001 78.6999 16.3001 78.0999C16.4001 77.9999 16.5001 77.8999 16.6001 77.8999ZM16.6001 88.5V103.1C15.8001 107.3 15.3001 111.2 15.2001 115.2C15.2001 118.8 15.6001 122.5 16.6001 126.7V130.5C14.8001 124.7 14.2001 119.8 14.2001 115.2C14.2001 110.2 15.1001 105.6 16.1001 100.3C16.4001 98.6 16.5001 96.6 16.4001 94.8C16.3001 91.4 15.9001 88.5999 15.9001 88.5999C15.3001 88.2999 14.8001 88.7 14.4001 89.3999C13.5001 90.9999 12.9001 93.9999 12.6001 95.5999C12.5001 95.9999 12.5001 96.3 12.4001 96.5C11.9001 98.5 11.6001 103.1 11.5001 107.7C11.4001 112.4 11.4001 117.1 11.8001 119.1C12.1001 120.6 12.3001 122.4 12.5001 124.3C12.9001 128.3 13.4001 132.7 14.6001 135C15.4001 136.6 16.0001 137.4 16.7001 137.9V139.1C15.8001 138.7 14.9001 137.7 13.8001 135.4C12.5001 132.9 12.0001 128.4 11.6001 124.3C11.4001 122.4 11.2001 120.6 10.9001 119.2C10.5001 117.1 10.4001 112.3 10.6001 107.6C10.7001 102.9 11.1001 98.2 11.6001 96.2C11.7001 96 11.7001 95.7 11.8001 95.3C12.1001 93.7 12.7001 90.5 13.7001 88.7C14.4001 87.5 15.4001 86.8999 16.6001 87.5999C16.4001 87.8999 16.5001 88.1 16.6001 88.5ZM16.6001 142.2V143.6C15.4001 142.3 14.3001 141.2 14.0001 141.3C14.0001 141.3 14.1001 141.7 14.4001 142.6C16.5001 149.7 16.4001 157.5 16.2001 165.1C16.2001 167 16.1001 168.8 16.1001 170.8C16.1001 173.7 16.3001 175.4 16.5001 176.8V182.2C16.3001 180.6 16.0001 179.5 15.8001 178.5C15.4001 176.4 15.1001 174.9 15.1001 170.8C15.1001 169 15.1001 167 15.2001 165.1C15.3001 157.6 15.5001 149.9 13.4001 142.9C12.9001 141.3 13.1001 140.5 13.7001 140.3C14.3001 140.2 15.4001 141 16.6001 142.2Z" fill="#E39D56"/>
<path fill-rule="evenodd" clip-rule="evenodd" d="M13.5004 13.7H16.2004C16.4004 13.7 16.5004 13.8 16.5004 14V185.5V186.8L13.4004 188.9V13.7H13.5004Z" fill="#BF794A"/>
<path fill-rule="evenodd" clip-rule="evenodd" d="M13.5 179.9V145.8C14.5 153.3 14.4 161.2 14.3 169C14.3 171.2 14.2 173.4 14.2 175.9C14.2 178.3 14.4 179.3 14.6 180.4C14.7 181.1 14.9 181.7 15 182.8C15.1 184 15.7 185.5 16.3 187L15.5 187.6C14.8 186 14.2 184.3 14 182.9C13.9 181.9 13.8 181.2 13.6 180.5C13.6 180.3 13.5 180.1 13.5 179.9ZM13.5 143.2V140.5C13.6 140.4 13.6 140.4 13.7 140.4C14.3 140.2 15.4 141.1 16.6 142.2V143.6C15.4 142.3 14.3 141.2 14 141.3C14 141.3 14.1 141.7 14.4 142.6C16.5 149.7 16.4 157.5 16.2 165.1C16.2 167 16.1 168.8 16.1 170.8C16.1 173.7 16.3 175.4 16.5 176.8V182.2C16.3 180.6 16 179.5 15.8 178.5C15.4 176.4 15.1 174.9 15.1 170.8C15.1 169 15.1 167 15.2 165.1C15.3 157.7 15.5 150.1 13.5 143.2ZM13.5 135.4V132.1C13.8 133.3 14.1 134.4 14.5 135.2C15.3 136.8 15.9 137.6 16.6 138.1V139.3C15.7 138.9 14.8 137.9 13.7 135.6C13.6 135.6 13.5 135.4 13.5 135.4ZM13.5 91.5999V89C14.2 87.8 15.2 87.2 16.4 87.8999C16.4 87.8999 16.5 88.0999 16.6 88.5999V103.2C15.8 107.4 15.3 111.3 15.2 115.3C15.2 118.9 15.6 122.6 16.6 126.8V130.6C14.8 124.8 14.2 119.9 14.2 115.3C14.2 110.3 15.1 105.7 16.1 100.4C16.4 98.7 16.5 96.7 16.4 94.8999C16.3 91.4999 15.9 88.7 15.9 88.7C15.3 88.3999 14.8 88.8 14.4 89.5C14 90.1 13.7 90.7999 13.5 91.5999ZM13.5 82.2V80.5999C14.4 79.4999 15.4 78.6 16.4 78C16.5 77.9 16.5 77.8999 16.6 77.8999V79C15.7 79.6 14.8 80.4999 13.9 81.5999C13.8 81.7999 13.6 82 13.5 82.2ZM13.5 78.3V76.8C14.5 75.7 15.5 74.7999 16.6 74V75.1999C15.5 75.9999 14.4 77.1 13.5 78.3ZM13.5 73.8V72C14.5 70.5 15.5 69.0999 16.6 68.0999V69.5C15.5 70.7 14.4 72.3 13.5 73.8ZM13.5 67.5V65C14.7 62 15.5 58.8 14.8 55.9C14 52.9 13.7 49.4 13.5 46V33.0999C13.8 33.7999 14 34.5 14 35.2999C14.2 37.2999 14.3 39.6 14.3 42C14.5 46.7 14.6 51.6999 15.7 55.6999C16.7 59.5999 15.2 63.7999 13.5 67.5ZM13.5 26.9V24.7C15.1 27.2 16.4 31.6999 16.5 42.2999C16.5 42.7999 16.6 43.1999 16.6 43.5999V47.5999C16.1 46.0999 15.5 44.2999 15.5 42.2999C15.4 34 14.6 29.5 13.5 26.9ZM13.5 21.5999V20C14.5 21.2 15.7 22.8 16.6 24.4V26.7999C16.5 26.4 16.3 26.0999 16.1 25.7999C15.4 24.2999 14.4 22.7999 13.5 21.5999ZM13.5 15.7V13.7H14C14.2 15.5 15.4 17.5 16.6 19.1V20.7999C15.4 19.3999 14.2 17.5 13.5 15.7Z" fill="#9C5728"/>
<path fill-rule="evenodd" clip-rule="evenodd" d="M0.000110801 9.1001C0.100111 4.1001 4.20011 0.100098 9.30011 0.100098C14.4001 0.100098 18.5001 4.1001 18.6001 9.1001C18.8001 13.0001 17.2001 16.5001 16.7001 19.9001C16.6001 20.9001 16.6001 23.3001 16.6001 24.3001V24.7001C16.6001 24.8001 16.5001 25.0001 16.4001 25.1001C16.3001 25.2001 16.1001 25.3001 15.9001 25.3001C15.8001 25.3001 15.6001 25.2001 15.5001 25.2001L15.2001 25.0001C15.1001 24.9001 14.9001 24.8001 14.8001 24.7001C14.7001 24.6001 14.5001 24.5001 14.4001 24.4001C14.0001 24.1001 13.7001 23.9001 13.3001 23.8001V23.7001H12.6001H9.30011H5.80011H2.50011C2.20011 23.7001 2.00011 23.5001 2.00011 23.2001V22.8001C2.00011 21.8001 2.00011 21.0001 1.90011 20.0001C1.40011 16.6001 -0.199889 13.0001 0.000110801 9.1001Z" fill="#853D03"/>
<path fill-rule="evenodd" clip-rule="evenodd" d="M0.000197127 9.1001C0.100197 4.1001 4.2002 0.100098 9.3002 0.100098C10.8002 0.100098 11.9002 1.1001 12.9002 2.1001C17.6002 7.2001 14.2002 13.1001 13.5002 18.8001C13.5002 18.9001 13.5002 19.0001 13.4002 19.1001V23.6001C10.9002 23.6001 8.3002 23.6001 5.8002 23.6001H2.5002C2.2002 23.6001 2.0002 23.4001 2.0002 23.1001C2.0002 21.6001 2.0002 20.3001 1.7002 18.8001C1.1002 15.9001 -0.199803 12.6001 0.000197127 9.1001Z" fill="#B95300"/>
<path fill-rule="evenodd" clip-rule="evenodd" d="M2 23.2C2 22 4.2 21 6.9 21C9.2 21 10.9 21.3 13.4 21.4V23.8C13.3 23.8 13.1 23.7 12.9 23.7C9.8 23.8 7.7 25.5 4.5 25.1C3.3 25 2 24.5 2 23.2Z" fill="#B95300"/>
<path fill-rule="evenodd" clip-rule="evenodd" d="M2.00004 10.4C2.10004 6.19995 5.10004 2.69995 9.00004 1.69995C5.50004 4.49995 3.20004 8.79995 3.10004 13.5C3.00004 15.6 3.20004 17.6 3.50004 19.5C2.90004 16.7 1.80004 13.7 2.00004 10.4Z" fill="#EB8046"/>
</svg>
